<?xml version="1.0" encoding="UTF-8"?>
<svg version="1.1" xmlns="http://www.w3.org/2000/svg" width="512" height="512">
<path d="M0 0 C4.20274319 1.88509904 8.07529456 4.22238241 12 6.625 C13.71710867 7.64599682 15.43422627 8.66697914 17.15196228 9.68692017 C18.92272682 10.74186399 20.6886542 11.80451685 22.45361328 12.86914062 C28.08246976 16.25964971 33.76259308 19.56232087 39.4375 22.875 C40.45521484 23.47521973 41.47292969 24.07543945 42.52148438 24.69384766 C43.46185547 25.2460498 44.40222656 25.79825195 45.37109375 26.3671875 C46.6075061 27.09591064 46.6075061 27.09591064 47.86889648 27.83935547 C50.07916435 29.12418355 50.07916435 29.12418355 53 30 C55.21113725 29.08786199 55.21113725 29.08786199 57.55859375 27.59765625 C58.48857178 27.04416504 59.4185498 26.49067383 60.37670898 25.92041016 C61.38677002 25.3072998 62.39683105 24.69418945 63.4375 24.0625 C65.60377532 22.77928702 67.77045946 21.49676402 69.9375 20.21484375 C73.53858673 18.07183259 77.13415651 15.91973271 80.7265625 13.76220703 C83.84451231 11.89182081 86.97410817 10.0422249 90.11087036 8.20358276 C91.31914773 7.49012279 92.52310206 6.76928532 93.72238159 6.040802 C105.68418517 -1.22132588 105.68418517 -1.22132588 111.7175293 -0.65332031 C116.91524105 0.83444059 121.37105518 3.74123517 125.9375 6.5625 C127.66479378 7.59496346 129.39210639 8.62739701 131.12054443 9.65794373 C132.9063404 10.72581162 134.68704247 11.80181107 136.46728516 12.87890625 C141.9680861 16.19587356 147.55155843 19.36974602 153.125 22.5625 C166.43386936 30.23198412 179.6975744 37.97835124 192.95898438 45.72949219 C204.28852891 52.35021812 215.62976603 58.94935227 227 65.5 C240.35009178 73.19128838 253.65733042 80.9548291 266.95898438 88.72949219 C268.9386346 89.88635436 270.91845309 91.04292864 272.8984375 92.19921875 C274.87277693 93.35221225 276.84673938 94.50585155 278.8203125 95.66015625 C284.22337657 98.81548894 289.64126876 101.94248239 295.078125 105.0390625 C296.85156254 106.05192574 298.62479893 107.06514044 300.39801025 108.07839966 C302.07911283 109.03635186 303.76387483 109.9878732 305.44873047 110.93920898 C318.77701593 118.55403186 318.77701593 118.55403186 321 123 C321.10217254 124.40757377 321.14373149 125.81979283 321.15390015 127.23103333 C321.16250061 128.11845718 321.17110107 129.00588104 321.17996216 129.92019653 C321.18635208 131.38439529 321.18635208 131.38439529 321.19287109 132.87817383 C321.20104858 133.9043129 321.20922607 134.93045197 321.21765137 135.98768616 C321.2425282 139.39412852 321.25902648 142.80052918 321.2734375 146.20703125 C321.27876118 147.36840796 321.28408485 148.52978466 321.28956985 149.7263546 C321.31631023 155.87233191 321.33568311 162.01828883 321.35009766 168.16430664 C321.36675575 174.52008089 321.41154137 180.87533764 321.4624691 187.23091602 C321.49608381 192.11134962 321.50766876 196.99165947 321.51332474 201.8721981 C321.52005219 204.21540982 321.53531273 206.55861297 321.55921555 208.90171242 C321.59074743 212.17945477 321.59092143 215.45578909 321.58349609 218.73364258 C321.59990143 219.70370239 321.61630676 220.67376221 321.63320923 221.67321777 C321.59052835 226.2698604 321.53609693 228.31359774 318.63076782 232.03349304 C316.05478144 233.95905071 313.50179885 235.6323393 310.6875 237.1875 C308.08482091 238.58126501 308.08482091 238.58126501 306 240 C306 240.66 306 241.32 306 242 C308.95522715 243.86018949 312.01300913 245.48375884 315.08203125 247.1484375 C317.98631701 248.99131762 319.2575039 250.09583324 321 253 C321.39872742 255.64294434 321.39872742 255.64294434 321.43237305 258.70898438 C321.45214706 259.8730481 321.47192108 261.03711182 321.49229431 262.2364502 C321.50190941 264.1458136 321.50190941 264.1458136 321.51171875 266.09375 C321.52883825 267.45017025 321.54718448 268.80657548 321.56666565 270.16296387 C321.6153946 273.84184769 321.64508591 277.52065706 321.67036438 281.19976807 C321.69323798 284.27024909 321.72561644 287.34060086 321.75786018 290.41099548 C321.84188304 298.46314117 321.9028421 306.515307 321.9521656 314.56773376 C321.9877399 320.3264865 322.03288259 326.08510267 322.08251953 331.84375 C322.14953641 339.72643025 322.19674112 347.60904753 322.22915649 355.49194336 C322.24172959 358.49282472 322.26046541 361.49357205 322.28427124 364.49438477 C322.31659503 368.68382504 322.32375032 372.87293718 322.328125 377.0625 C322.34041641 378.30519653 322.35270782 379.54789307 322.3653717 380.82824707 C322.36095314 382.53941711 322.36095314 382.53941711 322.35644531 384.28515625 C322.36009094 385.27394775 322.36373657 386.26273926 322.36749268 387.28149414 C321.83210138 391.24202038 320.22461356 393.95673713 317.19311523 396.53930664 C316.1674646 397.1869397 316.1674646 397.1869397 315.12109375 397.84765625 C314.32171387 398.35312988 313.52233398 398.85860352 312.69873047 399.37939453 C308.11733139 402.13055493 303.49559378 404.80434422 298.84240723 407.43218994 C296.37796927 408.82413006 293.91792948 410.22376616 291.45755005 411.62286377 C290.18372882 412.34714432 288.90970036 413.07106052 287.63546753 413.7946167 C281.32525322 417.37866409 275.03578272 420.99829327 268.75 424.625 C267.69377441 425.23158447 266.63754883 425.83816895 265.54931641 426.46313477 C260.11542143 429.59064321 254.71591014 432.76362914 249.35546875 436.015625 C248.27749023 436.66321777 247.19951172 437.31081055 246.08886719 437.97802734 C244.05140937 439.20447972 242.02149063 440.4435838 240.00097656 441.69775391 C234.53733982 444.97153134 229.53479898 447.74274645 223 447 C220.21288571 446.04244721 217.89146767 444.67800646 215.4375 443.0625 C214.81037109 442.67642578 214.18324219 442.29035156 213.53710938 441.89257812 C212.0115945 440.94932083 210.503767 439.97755551 209 439 C208.98582031 440.22976563 208.97164063 441.45953125 208.95703125 442.7265625 C208.9101103 444.35941158 208.86186303 445.99222292 208.8125 447.625 C208.80379883 448.83736328 208.80379883 448.83736328 208.79492188 450.07421875 C208.63903714 454.33506812 208.2429679 456.61069915 205.9375 460.3046875 C202.55971086 463.4039887 199.2397901 465.41393116 195.1875 467.5 C193.5623627 468.36971155 191.93874111 469.24225949 190.31640625 470.1171875 C189.45289551 470.58092773 188.58938477 471.04466797 187.69970703 471.52246094 C182.94945792 474.12225363 178.29211039 476.87961827 173.625 479.625 C163.42401026 485.60426428 153.1883764 491.52014587 142.90356445 497.35400391 C137.90195636 500.19200745 132.90815339 503.03339368 127.98828125 506.01171875 C127.26640625 506.44121826 126.54453125 506.87071777 125.80078125 507.31323242 C124.54240215 508.06433518 123.29237631 508.82977287 122.0546875 509.61450195 C117.38235444 512.37049135 113.25588567 513.10994494 108 512 C103.74542131 510.16346961 99.87647598 507.80518001 95.9375 505.375 C94.78959879 504.6868177 93.64048565 504.00065333 92.49023438 503.31640625 C90.13089853 501.90987675 87.77777637 500.49375402 85.42919922 499.06933594 C80.32514497 495.97958294 75.15982642 492.99530656 70 490 C68.02065243 488.84405971 66.04148714 487.68780724 64.0625 486.53125 C57.72104328 482.83206691 51.36159515 479.16441104 45 475.5 C31.64984335 467.80882531 18.34266872 460.0451704 5.04101562 452.27050781 C-6.28852891 445.64978188 -17.62976603 439.05064773 -29 432.5 C-39.3564004 426.53344461 -49.6912314 420.53122519 -60.0078125 414.49609375 C-64.18131852 412.05614486 -68.36484767 409.63444441 -72.5546875 407.22265625 C-74.17286377 406.28788452 -74.17286377 406.28788452 -75.82373047 405.33422852 C-77.87507522 404.14962028 -79.92863749 402.96884001 -81.98486328 401.79272461 C-97.37054256 392.88837232 -97.37054256 392.88837232 -99 388 C-99.09406536 386.57349503 -99.13367142 385.14302753 -99.1386652 383.71343327 C-99.14413964 382.83326261 -99.14961409 381.95309195 -99.15525442 381.04624945 C-99.15672158 379.59395435 -99.15672158 379.59395435 -99.15821838 378.11231995 C-99.16315636 377.08376088 -99.16809434 376.05520181 -99.17318195 374.99547428 C-99.18860593 371.52896695 -99.19693262 368.06247824 -99.20532227 364.59594727 C-99.21490093 362.11473426 -99.224911 359.63352289 -99.23532104 357.15231323 C-99.25964407 351.08396633 -99.27937143 345.01561982 -99.29707379 338.94725127 C-99.31809601 331.81753912 -99.34454766 324.6878501 -99.37124526 317.55815732 C-99.41902841 304.75322052 -99.46220558 291.94827234 -99.50268555 279.14331055 C-99.5414838 266.872466 -99.58291443 254.60163479 -99.62768555 242.33081055 C-99.63040536 241.58392828 -99.63312517 240.83704601 -99.63592739 240.06753094 C-99.6468788 237.06041669 -99.65784343 234.05330249 -99.66882221 231.04618833 C-99.74090046 211.30250778 -99.81164308 191.5588336 -99.8656311 171.81509399 C-99.86754755 171.11629313 -99.869464 170.41749227 -99.87143852 169.69751562 C-99.88835124 163.51852488 -99.90506789 157.33953364 -99.92120481 151.16054082 C-99.9600221 136.40754609 -100.01115403 121.65484319 -100.10088825 106.90206623 C-100.1361702 101.07827446 -100.16244199 95.254459 -100.18479842 89.43060416 C-100.19904078 85.86846012 -100.21829931 82.30653088 -100.25146675 78.74450874 C-100.28374236 75.06127857 -100.29847348 71.37841499 -100.30834961 67.69506836 C-100.32948602 66.15693513 -100.32948602 66.15693513 -100.35104942 64.5877285 C-100.34442411 59.30390604 -100.03152714 55.53940626 -97 51 C-94.50170898 49.08813477 -94.50170898 49.08813477 -91.49609375 47.44140625 C-90.37638184 46.81613037 -89.25666992 46.19085449 -88.10302734 45.54663086 C-86.88123909 44.8851538 -85.65939516 44.22377956 -84.4375 43.5625 C-83.17038741 42.86060634 -81.90428752 42.15688165 -80.63916016 41.45141602 C-78.03516819 40.00069269 -75.42742251 38.55708965 -72.81689453 37.11816406 C-67.12401508 33.97060432 -61.50131053 30.70209065 -55.875 27.4375 C-53.74889982 26.20928584 -51.62259698 24.98142244 -49.49609375 23.75390625 C-46.7506458 22.16756375 -44.00529263 20.58105752 -41.2600708 18.99432373 C-38.29813364 17.28233729 -35.33604475 15.57061486 -32.37353516 13.85961914 C-30.15276842 12.57692674 -27.93236529 11.29360452 -25.71240234 10.00952148 C-23.72154059 8.85970114 -21.72754847 7.71527824 -19.72998047 6.57714844 C-17.98275179 5.56774965 -16.25058359 4.53152179 -14.53955078 3.46191406 C-9.79810777 0.57511368 -5.62177242 -1.48504342 0 0 Z " fill="#010101" transform="translate(145,0)"/>
<path d="M0 0 C3.598651 1.40683448 6.88030803 2.97624781 10.2265625 4.9140625 C11.24411621 5.50179443 12.26166992 6.08952637 13.31005859 6.69506836 C14.40398926 7.3319458 15.49791992 7.96882324 16.625 8.625 C17.78588495 9.2977543 18.9468567 9.97035883 20.10791016 10.64282227 C29.35863324 16.00939876 38.55186827 21.47174224 47.74194336 26.94140625 C57.01138095 32.44507232 66.35624734 37.80708499 75.72558594 43.13818359 C84.20440683 47.96388372 92.64290794 52.85478149 101.06323242 57.78173828 C108.35954661 62.04906274 115.67535285 66.28151161 123 70.5 C139.52685779 80.02280546 156.00413767 89.62922586 172.4375 99.3125 C173.8601416 100.149021 173.8601416 100.149021 175.31152344 101.00244141 C176.17680664 101.51339355 177.04208984 102.0243457 177.93359375 102.55078125 C178.69728271 103.00106689 179.46097168 103.45135254 180.24780273 103.9152832 C182 105 182 105 183 106 C183.09709605 107.61597566 183.12371596 109.23622122 183.12304783 110.85511112 C183.12503888 111.91257103 183.12702993 112.97003094 183.12908131 114.05953509 C183.12616847 115.23557958 183.12325563 116.41162407 183.12025452 117.62330627 C183.12153615 119.48056246 183.12153615 119.48056246 183.12284368 121.37533897 C183.12421194 124.82777739 183.12106421 128.28015983 183.11606562 131.73259151 C183.11176462 135.44971842 183.11320729 139.16684347 183.1139679 142.88397217 C183.11449335 149.32935055 183.11134428 155.77471884 183.10573006 162.22009468 C183.09761801 171.53913349 183.09500014 180.85816741 183.09374207 190.17720937 C183.09155108 205.2951443 183.08488974 220.41307385 183.07543945 235.53100586 C183.06626654 250.22045871 183.05918512 264.9099101 183.05493164 279.59936523 C183.05466892 280.50416217 183.05440619 281.40895911 183.05413551 282.34117413 C183.05283051 286.88007708 183.05156679 291.41898004 183.05032361 295.957883 C183.03994954 333.63859247 183.02232997 371.31929582 183 409 C179.06804528 407.7282356 175.63344163 406.38267032 172.078125 404.26953125 C171.14895264 403.72184082 170.21978027 403.17415039 169.26245117 402.60986328 C168.26834229 402.0167334 167.2742334 401.42360352 166.25 400.8125 C164.08505648 399.53444273 161.91967709 398.25712356 159.75390625 396.98046875 C158.63773926 396.32095215 157.52157227 395.66143555 156.37158203 394.98193359 C150.99930677 391.82392269 145.59211855 388.72720995 140.1875 385.625 C131.29056268 380.50796382 122.44351943 375.31341693 113.625 370.0625 C103.23821961 363.8800717 92.77983611 357.83933982 82.27441406 351.86181641 C73.79843972 347.03773639 65.36212462 342.14956462 56.94555664 337.22265625 C50.67321741 333.55297552 44.3844473 329.91335086 38.08422852 326.29174805 C28.82763409 320.97040933 19.59573329 315.61427234 10.4375 310.125 C9.1695459 309.36582275 9.1695459 309.36582275 7.87597656 308.59130859 C2.12980053 305.12980053 2.12980053 305.12980053 1 304 C0.89111439 302.141432 0.8531003 300.27869736 0.84178162 298.41697693 C0.82709792 296.58979504 0.82709792 296.58979504 0.81211758 294.72570038 C0.80620613 293.35806825 0.80039649 291.99043568 0.79467773 290.62280273 C0.78509427 289.18553134 0.77508663 287.74826273 0.76468754 286.31099701 C0.73739913 282.35454534 0.71646781 278.39808169 0.69668961 274.44158626 C0.67458496 270.20831613 0.64711668 265.97508014 0.6204834 261.74183655 C0.56968896 253.50253902 0.52487102 245.2632188 0.48234785 237.02387482 C0.44793068 230.36779294 0.41126986 223.7117267 0.37332153 217.05566406 C-0.0372833 144.70353786 -0.12214081 72.35306386 0 0 Z " fill="#2BC4DF" transform="translate(65,76)"/>
<path d="M0 0 C0.51234668 9.68267626 0.90180733 19.36062803 1.13986778 29.05395031 C1.25421556 33.55706336 1.408772 38.05084744 1.65966797 42.54858398 C3.24184927 71.64749844 3.24184927 71.64749844 -2.14978027 78.8862915 C-7.35213042 83.36796307 -13.09962344 85.88840258 -19.55096436 88.0843811 C-23.31265476 89.49076113 -26.18861761 91.37723522 -28 95 C-28.13560372 97.78558087 -28.21271215 100.54492918 -28.23828125 103.33203125 C-28.25038887 104.57517342 -28.25038887 104.57517342 -28.26274109 105.84342957 C-28.27658221 107.59945585 -28.28730424 109.35550904 -28.29516602 111.11157227 C-28.31236651 113.79170009 -28.35624926 116.47059028 -28.40039062 119.15039062 C-28.41051879 120.85676176 -28.41903451 122.56314339 -28.42578125 124.26953125 C-28.45204338 125.46821587 -28.45204338 125.46821587 -28.47883606 126.69111633 C-28.46361558 130.61362601 -28.27483864 132.55594569 -26.16088867 135.97143555 C-23.92284046 138.0724346 -22.29061027 139.07575885 -19.1953125 139.34375 C-15.04651433 138.69411612 -11.51536097 136.53761944 -7.8671875 134.54296875 C-5 133 -5 133 0 131 C0 166.97 0 202.94 0 240 C-8.25 244.62 -16.5 249.24 -25 254 C-31.62869149 257.86276267 -38.23839656 261.75019669 -44.82226562 265.68798828 C-46.85098535 266.90098002 -48.88069431 268.11231877 -50.91137695 269.32202148 C-52.89924101 270.50640035 -54.88483439 271.69460029 -56.86791992 272.88696289 C-57.76615479 273.42184326 -58.66438965 273.95672363 -59.58984375 274.5078125 C-60.39284912 274.98879395 -61.19585449 275.46977539 -62.02319336 275.96533203 C-64 277 -64 277 -66 277 C-66.00546844 275.41932487 -66.00546844 275.41932487 -66.01104736 273.80671692 C-66.04799223 263.87469231 -66.10575936 253.94297789 -66.18390274 244.01118946 C-66.22340814 238.90515166 -66.25558162 233.79928711 -66.27099609 228.69311523 C-66.28614246 223.76513306 -66.32055215 218.83762708 -66.36830902 213.9098568 C-66.38314366 212.03004788 -66.39104221 210.15017099 -66.39188385 208.27030373 C-66.39424901 205.63647343 -66.4212914 203.003964 -66.45410156 200.37036133 C-66.4490712 199.59352493 -66.44404083 198.81668854 -66.43885803 198.01631165 C-66.50952354 194.34876387 -66.89805398 192.16609298 -68.83294678 189.01371765 C-70.91456146 186.71761471 -70.91456146 186.71761471 -74.21875 186.41015625 C-79.02558432 187.15998268 -82.36043727 188.96871378 -86.5 191.4375 C-87.66499023 192.11159912 -87.66499023 192.11159912 -88.85351562 192.79931641 C-90.45451713 193.72931952 -92.05153469 194.66621422 -93.64453125 195.60986328 C-95.89641087 196.93886438 -98.16346588 198.23671711 -100.4375 199.52734375 C-101.79239474 200.30863458 -103.14659769 201.09112672 -104.5 201.875 C-105.12841797 202.23134521 -105.75683594 202.58769043 -106.40429688 202.95483398 C-109.77525603 204.95082136 -111.56956477 206.35931143 -113 210 C-113.28123715 211.97573438 -113.28123715 211.97573438 -113.21791077 214.04721069 C-113.21606781 214.84338303 -113.21422485 215.63955536 -113.21232605 216.45985413 C-113.20034683 217.32436691 -113.18836761 218.1888797 -113.17602539 219.07958984 C-113.17161438 219.9971254 -113.16720337 220.91466095 -113.16265869 221.86000061 C-113.1528175 223.85107031 -113.13896131 225.84212328 -113.12156868 227.83314133 C-113.08920147 232.06684104 -113.09159929 236.30029516 -113.09185696 240.53409767 C-113.0917132 248.41594534 -113.07647276 256.2971702 -113.00366211 264.17871094 C-112.9543321 269.66263991 -112.9487003 275.14511739 -112.97179985 280.62919998 C-112.97236867 282.71761578 -112.95667666 284.80610215 -112.92436409 286.89426804 C-112.68198354 303.21959067 -112.68198354 303.21959067 -115.87033081 307.52648926 C-118.21184286 309.12539148 -120.32557665 310.08544672 -123 311 C-124.00546875 311.59651367 -125.0109375 312.19302734 -126.046875 312.80761719 C-126.93890625 313.29907227 -127.8309375 313.79052734 -128.75 314.296875 C-129.76223633 314.85810059 -130.77447266 315.41932617 -131.81738281 315.99755859 C-133.39277832 316.86501709 -133.39277832 316.86501709 -135 317.75 C-146.40989638 324.08715881 -157.77407791 330.49051819 -168.85546875 337.390625 C-169.46165039 337.76783691 -170.06783203 338.14504883 -170.69238281 338.53369141 C-172.31817834 339.55038223 -173.93860829 340.57563929 -175.55859375 341.6015625 C-178 343 -178 343 -180 343 C-180.54982674 304.38395194 -180.97247411 265.76849524 -181.22556791 227.14932217 C-181.25558339 222.58586985 -181.28664727 218.02242521 -181.31835938 213.45898438 C-181.32465483 212.55051922 -181.33095028 211.64205406 -181.3374365 210.70605965 C-181.44175623 196.01266846 -181.63091371 181.32154018 -181.85166711 166.6294897 C-182.07643607 151.54389795 -182.20947693 136.45948764 -182.25812387 121.37229025 C-182.29099495 112.0676454 -182.39460008 102.76939543 -182.58999521 93.46672107 C-182.71728485 87.07952217 -182.75511786 80.69560683 -182.72403306 74.30723296 C-182.70870738 70.6232394 -182.7314067 66.95036629 -182.8609314 63.2683773 C-183.57822889 41.83715997 -183.57822889 41.83715997 -177.63529015 35.46417284 C-171.85327615 30.98808421 -165.55619151 27.95078215 -158.81607914 25.1891253 C-155.13749715 23.63579718 -151.86324678 21.71646665 -148.4609375 19.6328125 C-143.24946036 16.62622257 -138.03446732 13.62573449 -132.81933594 10.62548828 C-130.31604104 9.18221348 -127.81708321 7.73186426 -125.3203125 6.27734375 C-124.65854004 5.89368652 -123.99676758 5.5100293 -123.31494141 5.11474609 C-121.65643674 4.15319711 -119.99998471 3.1881099 -118.34375 2.22265625 C-116 1 -116 1 -114 1 C-113.99780016 2.14494572 -113.99780016 2.14494572 -113.99555588 3.31302166 C-113.95850945 21.88296085 -113.89952355 40.45271158 -113.81609726 59.02250195 C-113.77628238 68.00271595 -113.74390236 76.98284201 -113.72900391 85.96313477 C-113.71600005 93.79007297 -113.68906791 101.61681786 -113.64538693 109.44364721 C-113.62274347 113.58820765 -113.60709104 117.73252942 -113.60811615 121.87715721 C-113.60886107 125.77854191 -113.59097848 129.67939845 -113.55883217 133.58064651 C-113.55031611 135.01208526 -113.54859485 136.44358313 -113.55419731 137.87503624 C-113.56083186 139.83075187 -113.54056561 141.78650343 -113.51898193 143.74211121 C-113.51529476 144.83627948 -113.51160759 145.93044775 -113.50780869 147.05777264 C-112.8806219 150.69167289 -111.54128512 152.37703381 -109 155 C-104.87909179 156.56275861 -100.95282654 155.40609714 -97.02587891 153.73242188 C-93.72087243 152.00363356 -90.51621466 150.15972465 -87.3125 148.25 C-86.21099609 147.61578125 -85.10949219 146.9815625 -83.97460938 146.328125 C-74.86021877 141.87139335 -74.86021877 141.87139335 -68 135 C-68.02350178 132.03060495 -68.10939917 129.08781674 -68.23901367 126.12255859 C-68.31175284 124.21330686 -68.38281405 122.30399066 -68.45243835 120.3946228 C-68.50810754 118.8695064 -68.50810754 118.8695064 -68.56490135 117.31357956 C-68.77748814 110.78515853 -68.87450168 104.25397301 -68.977458 97.72304344 C-69.07408059 91.99014998 -69.22115239 86.26787599 -69.48461914 80.54003906 C-71.18418695 42.34702349 -71.18418695 42.34702349 -64.35159302 34.42126465 C-58.21934554 28.66175252 -50.53443769 25.85936416 -42.63450623 23.30996704 C-36.64985135 21.15294759 -31.46284745 17.84051414 -26.0625 14.5 C-24.11599765 13.35733918 -22.16717528 12.2186099 -20.21484375 11.0859375 C-14.81258973 7.90722274 -9.48093254 4.62651434 -4.1953125 1.2578125 C-2 0 -2 0 0 0 Z " fill="#FDFDFD" transform="translate(447,143)"/>
<path d="M0 0 C3.48075923 1.33588772 6.57755111 3.16152142 9.7421875 5.10546875 C11.25566975 6.01572215 12.77005429 6.92447639 14.28515625 7.83203125 C15.53498291 8.58274902 15.53498291 8.58274902 16.81005859 9.34863281 C22.02526088 12.4493633 27.29404466 15.45771804 32.5546875 18.48046875 C40.44531911 23.02379891 48.32270673 27.58670885 56.16430664 32.21411133 C71.66698508 41.36112104 87.24051825 50.38596856 102.8371582 59.37158203 C113.10327431 65.28936261 123.33894342 71.25853188 133.56933594 77.23779297 C136.60676725 79.0108699 139.64676698 80.77946703 142.6875 82.546875 C147.67607045 85.44716056 152.65978269 88.35558655 157.63867188 91.27246094 C159.60775098 92.42581638 161.57782888 93.57746807 163.54882812 94.72753906 C166.38875286 96.38744227 169.22251742 98.05737728 172.0546875 99.73046875 C172.91610352 100.2320752 173.77751953 100.73368164 174.66503906 101.25048828 C175.44331055 101.71310059 176.22158203 102.17571289 177.0234375 102.65234375 C177.70857422 103.05549805 178.39371094 103.45865234 179.09960938 103.87402344 C179.57978516 104.23915039 180.05996094 104.60427734 180.5546875 104.98046875 C180.5546875 105.64046875 180.5546875 106.30046875 180.5546875 106.98046875 C177.91292589 108.50456199 175.27116296 110.02865295 172.62939453 111.55273438 C170.30482863 112.89384274 167.98028115 114.23498297 165.65576172 115.57617188 C160.17225211 118.73996004 154.68862006 121.90353422 149.20401001 125.06541443 C147.47368062 126.06296597 145.74343181 127.06065727 144.01318359 128.05834961 C141.85479367 129.30289361 139.69627347 130.54721171 137.53759766 131.79125977 C136.53519043 132.36932373 135.5327832 132.9473877 134.5 133.54296875 C133.52321289 134.09984375 132.54642578 134.65671875 131.54003906 135.23046875 C129.44767725 136.45700207 127.38359751 137.73247302 125.34277344 139.04296875 C124.29637695 139.70296875 123.24998047 140.36296875 122.171875 141.04296875 C121.23714355 141.65269531 120.30241211 142.26242188 119.33935547 142.890625 C116.5546875 143.98046875 116.5546875 143.98046875 113.54785156 143.35986328 C110.59088359 141.99714966 107.83186016 140.53403562 105.046875 138.84765625 C103.99218018 138.21456543 102.93748535 137.58147461 101.85083008 136.92919922 C101.01643906 136.42329254 101.01643906 136.42329254 100.16519165 135.90716553 C97.15839386 134.08507853 94.1394177 132.28337628 91.12109375 130.48046875 C90.18432045 129.92019485 90.18432045 129.92019485 89.22862244 129.34860229 C82.65882451 125.42832406 76.01874978 121.63479182 69.3671875 117.85546875 C57.69180137 111.21404558 46.07303212 104.48044114 34.48144531 97.69384766 C29.5496069 94.80665697 24.61512934 91.92399458 19.6796875 89.04296875 C18.69452148 88.46788574 17.70935547 87.89280273 16.69433594 87.30029297 C9.3274641 83.00434676 1.94402609 78.73763305 -5.4453125 74.48046875 C-14.8117127 69.08427476 -24.16580409 63.66783623 -33.49414062 58.20605469 C-38.74273577 55.13357821 -44.00274897 52.08336482 -49.28125 49.0625 C-50.39612793 48.42127197 -51.51100586 47.78004395 -52.65966797 47.11938477 C-54.81410648 45.88079874 -56.97188483 44.64800019 -59.13330078 43.42163086 C-60.09220215 42.86870361 -61.05110352 42.31577637 -62.0390625 41.74609375 C-62.89177734 41.25915039 -63.74449219 40.77220703 -64.62304688 40.27050781 C-65.22439453 39.84479492 -65.82574219 39.41908203 -66.4453125 38.98046875 C-66.4453125 38.32046875 -66.4453125 37.66046875 -66.4453125 36.98046875 C-65.81367187 36.62968262 -65.18203125 36.27889648 -64.53125 35.91748047 C-52.56906754 29.26631742 -40.64193442 22.56652544 -28.8203125 15.66796875 C-27.82668701 15.08958252 -26.83306152 14.51119629 -25.80932617 13.9152832 C-21.43027784 11.35574756 -17.07617711 8.77131027 -12.78515625 6.06640625 C-12.09437988 5.63497314 -11.40360352 5.20354004 -10.69189453 4.7590332 C-9.4514165 3.97907598 -8.21847564 3.18692274 -6.99560547 2.37963867 C-4.57807532 0.8613251 -2.88553135 -0.02304738 0 0 Z " fill="#F5B42B" transform="translate(141.4453125,21.01953125)"/>
<path d="M0 0 C2.3581543 1.16064453 2.3581543 1.16064453 4.82421875 2.6328125 C6.22281128 3.45918213 6.22281128 3.45918213 7.6496582 4.30224609 C8.652146 4.90375488 9.65463379 5.50526367 10.6875 6.125 C12.86152796 7.4122207 15.03602293 8.69865291 17.2109375 9.984375 C18.33338867 10.65017578 19.45583984 11.31597656 20.61230469 12.00195312 C25.98639035 15.17156375 31.40076087 18.27028184 36.8125 21.375 C45.70955773 26.49182278 54.55648411 31.68658518 63.375 36.9375 C73.76038225 43.11909609 84.21761037 49.15853218 94.72119141 55.13598633 C105.2138233 61.10863795 115.6456268 67.18195851 126.06445312 73.28222656 C130.0396086 75.6083405 134.01799783 77.92888515 137.99707031 80.24829102 C139.98173945 81.40601468 141.96548137 82.56532948 143.94824219 83.72631836 C149.22733426 86.81508394 154.52270753 89.87070979 159.84375 92.88671875 C160.9575 93.52287109 162.07125 94.15902344 163.21875 94.81445312 C165.36980581 96.04234748 167.52591777 97.26143562 169.6875 98.47070312 C170.6465625 99.02048828 171.605625 99.57027344 172.59375 100.13671875 C173.87282227 100.85927856 173.87282227 100.85927856 175.17773438 101.59643555 C175.77908203 102.05961182 176.38042969 102.52278809 177 103 C177 103.99 177 104.98 177 106 C175.20947266 107.38769531 175.20947266 107.38769531 172.6640625 108.828125 C171.71442627 109.3732373 170.76479004 109.91834961 169.78637695 110.47998047 C168.74312256 111.06408691 167.69986816 111.64819336 166.625 112.25 C165.55531982 112.86117676 164.48563965 113.47235352 163.38354492 114.10205078 C161.10135478 115.40554424 158.81739458 116.70514227 156.52978516 117.99902344 C151.89543476 120.62227692 147.28142051 123.28041612 142.66821289 125.94067383 C140.44416422 127.22267729 138.21810831 128.50120531 135.98999023 129.77612305 C131.48322387 132.36276151 126.99925686 134.94997303 122.6484375 137.79296875 C122.04475342 138.18564941 121.44106934 138.57833008 120.8190918 138.98291016 C119.34003514 139.96157072 117.87792266 140.96572048 116.41796875 141.97265625 C114 143 114 143 111.62890625 142.4375 C110.76136719 141.963125 109.89382813 141.48875 109 141 C108.44272217 140.69956787 107.88544434 140.39913574 107.3112793 140.08959961 C105.44078409 139.06598904 103.59453955 138.00710333 101.75 136.9375 C101.11320313 136.57333984 100.47640625 136.20917969 99.8203125 135.83398438 C95.14074248 133.14074248 95.14074248 133.14074248 94 132 C93.89013608 129.84054051 93.8440695 127.67778626 93.82421875 125.515625 C93.80100786 124.17446369 93.77689001 122.83331783 93.75195312 121.4921875 C93.71692084 119.37457142 93.68754784 117.25751818 93.67407227 115.13964844 C93.6585298 113.09760795 93.61827246 111.05722412 93.57421875 109.015625 C93.55234497 107.17919434 93.55234497 107.17919434 93.5300293 105.30566406 C92.89311725 101.33339826 91.85120388 99.80376888 89 97 C86.34757806 95.11855931 86.34757806 95.11855931 83.328125 93.50390625 C81.63792236 92.55342407 81.63792236 92.55342407 79.91357422 91.58374023 C78.69239025 90.90998001 77.47119865 90.23623361 76.25 89.5625 C74.98254608 88.85287416 73.71579035 88.14199997 72.44970703 87.42993164 C70.51277415 86.34063122 68.57551579 85.25198229 66.63613892 84.16703796 C60.67292672 80.82987375 54.76835147 77.39644703 48.875 73.9375 C40.60080138 69.09435227 32.30808419 64.28478633 24 59.5 C14.63066944 54.10232978 5.27458405 48.68284431 -4.05761719 43.22119141 C-9.25858628 40.17762929 -14.46884128 37.15194281 -19.6953125 34.15234375 C-20.79214355 33.52013916 -21.88897461 32.88793457 -23.01904297 32.23657227 C-25.12192474 31.02496024 -27.22758714 29.81815734 -29.33642578 28.61694336 C-30.28243652 28.07046143 -31.22844727 27.52397949 -32.203125 26.9609375 C-33.03489258 26.48446777 -33.86666016 26.00799805 -34.72363281 25.51708984 C-37.13763489 23.90827293 -39.02084136 22.11273196 -41 20 C-36.82838092 17.46242526 -32.64266359 14.95001734 -28.44482422 12.45605469 C-26.73034063 11.4349662 -25.01865892 10.40916536 -23.30908203 9.37988281 C-20.50627056 7.69673232 -17.69197098 6.03432175 -14.875 4.375 C-13.97499268 3.83004883 -13.07498535 3.28509766 -12.14770508 2.72363281 C-11.29200928 2.22444336 -10.43631348 1.72525391 -9.5546875 1.2109375 C-8.79655762 0.76024902 -8.03842773 0.30956055 -7.25732422 -0.15478516 C-4.35869511 -1.24012519 -2.9302692 -0.93459357 0 0 Z " fill="#F5B32B" transform="translate(258,22)"/>
<path d="M0 0 C2.97 1.65 5.94 3.3 9 5 C9 29.75 9 54.5 9 80 C3 78 3 78 0 76 C-0.28672361 73.51574117 -0.3786773 71.28139108 -0.34057617 68.79638672 C-0.34101425 68.0548233 -0.34145233 67.31325989 -0.34190369 66.54922485 C-0.33980979 64.09244669 -0.31645125 61.63634678 -0.29296875 59.1796875 C-0.28737491 57.47861097 -0.28310381 55.77752962 -0.28010559 54.07644653 C-0.26864004 49.5948151 -0.23915835 45.11347441 -0.20599365 40.63195801 C-0.17532948 36.06066827 -0.16160809 31.48933165 -0.14648438 26.91796875 C-0.11429013 17.94518461 -0.06307329 8.97261646 0 0 Z " fill="#2BC4DE" transform="translate(352,176)"/>
<path d="M0 0 C0 21.12 0 42.24 0 64 C-7.24162327 61.10335069 -7.24162327 61.10335069 -10 59 C-10.65510559 56.62283325 -10.65510559 56.62283325 -10.69458008 53.78173828 C-10.72002396 52.71698273 -10.74546783 51.65222717 -10.77168274 50.5552063 C-10.77061775 48.83018387 -10.77061775 48.83018387 -10.76953125 47.0703125 C-10.7814299 45.88782928 -10.79332855 44.70534607 -10.80558777 43.48703003 C-10.82214859 40.98375568 -10.82547731 38.48036435 -10.81665039 35.97705078 C-10.81252205 32.14546103 -10.87752833 28.31915035 -10.94726562 24.48828125 C-10.9547467 22.057301 -10.95813712 19.62630401 -10.95703125 17.1953125 C-10.98263626 16.04934601 -11.00824127 14.90337952 -11.03462219 13.72268677 C-10.92216288 5.96879025 -10.92216288 5.96879025 -8.22494507 3.13519287 C-5.52113617 1.38578408 -3.26631345 0 0 0 Z " fill="#28B7D0" transform="translate(362,356)"/>
</svg>
